HIERARCHY
ROOT joint_Root
{
	OFFSET 0.0 0.0 0.0
	CHANNELS 6 Xposition Yposition Zposition Zrotation Xrotation Yrotation 
	JOINT Hips
	{
		OFFSET 4.5925 91.4895 -427.239
		CHANNELS 6 Xposition Yposition Zposition Zrotation Xrotation Yrotation 
		JOINT Spine
		{
			OFFSET 15.7357 0.0 0.0
			CHANNELS 6 Xposition Yposition Zposition Zrotation Xrotation Yrotation 
			JOINT Chest
			{
				OFFSET 8.98455 -0.406207 0.0
				CHANNELS 6 Xposition Yposition Zposition Zrotation Xrotation Yrotation 
				JOINT Neck
				{
					OFFSET 16.3773 0.0 0.0
					CHANNELS 6 Xposition Yposition Zposition Zrotation Xrotation Yrotation 
					JOINT Head
					{
						OFFSET 6.45672 0.0 0.0
						CHANNELS 6 Xposition Yposition Zposition Zrotation Xrotation Yrotation 
						End Site
						{
							OFFSET 0.0 0.0 0.0
						}
					}
				}
				JOINT Shoulder_L
				{
					OFFSET 12.9942 -0.242716 4.98039
					CHANNELS 6 Xposition Yposition Zposition Zrotation Xrotation Yrotation 
					JOINT UpperArm_L
					{
						OFFSET 5.34809 0.0 0.0
						CHANNELS 6 Xposition Yposition Zposition Zrotation Xrotation Yrotation 
						JOINT LowerArm_L
						{
							OFFSET 24.3286 1.87007e-05 0.0
							CHANNELS 6 Xposition Yposition Zposition Zrotation Xrotation Yrotation 
							JOINT Hand_L
							{
								OFFSET 22.2916 0.0 0.0
								CHANNELS 6 Xposition Yposition Zposition Zrotation Xrotation Yrotation 
								End Site
								{
									OFFSET 0.0 0.0 0.0
								}
							}
						}
					}
				}
				JOINT Shoulder_R
				{
					OFFSET 12.9945 -0.242716 -4.98039
					CHANNELS 6 Xposition Yposition Zposition Zrotation Xrotation Yrotation 
					JOINT UpperArm_R
					{
						OFFSET -5.34813 0.0 0.0
						CHANNELS 6 Xposition Yposition Zposition Zrotation Xrotation Yrotation 
						JOINT LowerArm_R
						{
							OFFSET -24.3289 0.000322201 0.0
							CHANNELS 6 Xposition Yposition Zposition Zrotation Xrotation Yrotation 
							JOINT Hand_R
							{
								OFFSET -22.2915 -0.000108084 0.0
								CHANNELS 6 Xposition Yposition Zposition Zrotation Xrotation Yrotation 
								End Site
								{
									OFFSET 0.0 0.0 0.0
								}
							}
						}
					}
				}
			}
		}
		JOINT UpperLeg_L
		{
			OFFSET -2.19248 -6.46944 0.0
			CHANNELS 6 Xposition Yposition Zposition Zrotation Xrotation Yrotation 
			JOINT LowerLeg_L
			{
				OFFSET 39.0811 0.0 -1.23785e-05
				CHANNELS 6 Xposition Yposition Zposition Zrotation Xrotation Yrotation 
				JOINT Foot_L
				{
					OFFSET 40.9854 0.0 -1.26872e-05
					CHANNELS 6 Xposition Yposition Zposition Zrotation Xrotation Yrotation 
					JOINT Toes_L
					{
						OFFSET 11.7543 0.0 0.0
						CHANNELS 6 Xposition Yposition Zposition Zrotation Xrotation Yrotation 
						End Site
						{
							OFFSET 0.0 0.0 0.0
						}
					}
				}
			}
		}
		JOINT UpperLeg_R
		{
			OFFSET -2.19251 6.46944 0.0
			CHANNELS 6 Xposition Yposition Zposition Zrotation Xrotation Yrotation 
			JOINT LowerLeg_R
			{
				OFFSET -39.0811 -0.00228153 -0.0401928
				CHANNELS 6 Xposition Yposition Zposition Zrotation Xrotation Yrotation 
				JOINT Foot_R
				{
					OFFSET -40.9854 0.0 0.0
					CHANNELS 6 Xposition Yposition Zposition Zrotation Xrotation Yrotation 
					JOINT Toes_R
					{
						OFFSET -11.7543 0.0 0.0
						CHANNELS 6 Xposition Yposition Zposition Zrotation Xrotation Yrotation 
						End Site
						{
							OFFSET 0.0 0.0 0.0
						}
					}
				}
			}
		}
	}
}
MOTION
Frames:	8
Frame Time:	0.0333333
0.000000 0.000000 0.000000 0.000000 0.000000 -0.000000 -2.558170 81.647600 -3.952610 87.412800 -1.492170 9.195580 15.735700 0.000005 -0.000001 85.755800 80.589200 -85.777000 8.984550 -0.406207 -0.000000 11.006000 -1.383130 0.090888 16.377300 -0.000001 -0.000001 -4.454480 -3.227970 2.568980 6.456720 -0.000001 -0.000000 -9.405130 -0.851319 0.459611 12.994200 -0.242716 4.980390 -90.874700 2.989330 -73.681500 5.348090 -0.000007 -0.000001 -61.528300 31.461400 -16.855000 24.328600 0.000019 0.000005 10.797000 18.462500 -31.056600 22.291600 -0.000001 0.000005 13.330700 5.271620 0.852424 12.994500 -0.242716 -4.980390 88.846000 6.759000 -80.287600 -5.348130 -0.000001 -0.000004 -53.192200 38.352800 -18.052600 -24.328900 0.000322 -0.000009 -0.719408 -1.019530 -35.168300 -22.291500 -0.000108 -0.000004 3.043930 5.407810 -3.168750 -2.192480 -6.469440 -0.000000 -170.964000 -12.859200 -20.602300 39.081100 -0.000007 -0.000012 -0.252936 0.119955 64.628500 40.985400 -0.000006 -0.000013 2.172190 8.835700 -84.500200 11.754300 -0.000000 0.000003 -0.000094 -0.000972 -16.614900 -2.192510 6.469440 -0.000001 -178.550000 13.826400 159.796000 -39.081100 -0.002282 -0.040193 0.105651 -0.050704 63.674000 -40.985400 0.000008 0.000006 8.339640 0.877714 -84.862500 -11.754300 -0.000006 -0.000006 -0.000900 -0.013969 -17.141300
0.000000 0.000000 0.000000 0.000000 0.000000 -0.000000 -3.001650 82.812000 -3.483680 87.366900 -0.065874 9.338160 15.735700 0.000005 -0.000001 85.272900 81.055000 -86.086100 8.984550 -0.406207 -0.000000 10.055500 -1.481140 -1.494990 16.377300 -0.000001 -0.000001 -3.763200 -3.182900 2.421350 6.456720 -0.000001 -0.000000 -8.794490 -1.482170 1.782350 12.994200 -0.242716 4.980390 -90.824200 2.708350 -73.066600 5.348090 -0.000007 -0.000001 -63.677500 27.890900 -15.385400 24.328600 0.000019 0.000005 9.823890 18.327200 -28.840300 22.291600 -0.000001 0.000005 14.616000 5.225910 2.060350 12.994500 -0.242716 -4.980390 88.986200 5.637400 -79.788000 -5.348130 -0.000001 -0.000004 -51.171400 36.867100 -17.461100 -24.328900 0.000322 -0.000009 1.762370 2.330810 -37.124200 -22.291500 -0.000108 -0.000004 -7.816610 5.317160 -0.366900 -2.192480 -6.469440 -0.000000 -170.718000 -11.884200 -18.753400 39.081100 -0.000007 -0.000012 -0.227587 0.124404 61.339100 40.985400 -0.000006 -0.000013 1.901730 9.504130 -83.051400 11.754300 -0.000000 0.000003 -0.000082 -0.000871 -16.611100 -2.192510 6.469440 -0.000001 -178.348000 14.351800 162.006000 -39.081100 -0.002282 -0.040193 0.103100 -0.056768 60.393000 -40.985400 0.000008 0.000006 8.028230 0.227888 -83.455700 -11.754300 -0.000006 -0.000006 -0.000780 -0.012234 -17.070800
0.000000 0.000000 0.000000 0.000000 0.000000 -0.000000 -3.334990 85.138800 -2.858060 87.252900 1.539610 8.941830 15.735700 0.000005 -0.000001 84.207400 81.914400 -85.875500 8.984550 -0.406207 -0.000000 8.303430 -1.632490 -3.214560 16.377300 -0.000001 -0.000001 -2.349960 -3.217740 2.414640 6.456720 -0.000001 -0.000000 -7.904790 -2.073760 3.466840 12.994200 -0.242716 4.980390 -90.689000 2.150000 -72.226700 5.348090 -0.000007 -0.000001 -65.581600 25.286000 -13.063300 24.328600 0.000019 0.000005 7.692440 15.486600 -26.832500 22.291600 -0.000001 0.000005 14.748300 5.200010 2.719330 12.994500 -0.242716 -4.980390 89.237100 3.821850 -78.700100 -5.348130 -0.000001 -0.000004 -45.306000 33.952000 -17.961300 -24.328900 0.000322 -0.000009 1.610270 1.815090 -41.617600 -22.291500 -0.000108 -0.000004 -15.085200 5.246610 1.527170 -2.192480 -6.469440 -0.000000 -170.702000 -10.692700 -15.562700 39.081100 -0.000007 -0.000012 -0.200901 0.143953 54.377800 40.985400 -0.000006 -0.000013 1.359340 10.063400 -79.859200 11.754300 -0.000000 0.000003 -0.000050 -0.000562 -16.599400 -2.192510 6.469440 -0.000001 -178.283000 15.594200 165.654000 -39.081100 -0.002282 -0.040193 0.090101 -0.064583 53.370500 -40.985400 0.000008 0.000006 7.803600 0.593589 -80.220100 -11.754300 -0.000006 -0.000006 -0.044014 -0.066633 -17.214200
0.000000 0.000000 0.000000 0.000000 0.000000 -0.000000 -3.463470 87.755500 -2.181340 87.179000 2.904780 7.832550 15.735700 0.000005 -0.000001 81.781500 83.041400 -84.182600 8.984550 -0.406207 -0.000000 5.974610 -1.946700 -4.695480 16.377300 -0.000001 -0.000001 -0.638518 -3.256490 2.353940 6.456720 -0.000001 -0.000000 -6.593820 -2.117150 4.721650 12.994200 -0.242716 4.980390 -90.428000 1.259660 -71.228500 5.348090 -0.000007 -0.000001 -67.099900 23.735200 -9.721280 24.328600 0.000019 0.000005 7.420150 14.850700 -26.936200 22.291600 -0.000001 0.000005 13.150500 5.203210 2.637830 12.994500 -0.242716 -4.980390 89.593200 1.793150 -77.211700 -5.348130 -0.000001 -0.000004 -34.584800 27.848900 -21.103200 -24.328900 0.000322 -0.000009 1.498660 1.412060 -46.732200 -22.291500 -0.000108 -0.000004 -14.528500 5.255170 1.297620 -2.192480 -6.469440 -0.000000 -170.939000 -10.118800 -12.015300 39.081100 -0.000007 -0.000012 -0.141574 0.139356 45.453100 40.985400 -0.000006 -0.000013 0.805940 10.665400 -75.730500 11.754300 -0.000000 0.000003 -0.000023 -0.000281 -16.588600 -2.192510 6.469440 -0.000001 -178.426000 17.632800 169.414000 -39.081100 -0.002282 -0.040193 0.071668 -0.069316 44.620300 -40.985400 0.000008 0.000006 7.679550 2.197740 -75.642200 -11.754300 -0.000006 -0.000006 -0.091964 -0.138590 -18.023000
0.000000 0.000000 0.000000 0.000000 0.000000 -0.000000 -3.291560 89.798400 -1.787050 87.637100 3.216310 6.046240 15.735700 0.000005 -0.000001 78.942500 84.280600 -81.950800 8.984550 -0.406207 -0.000000 3.414990 -2.077250 -5.948660 16.377300 -0.000001 -0.000001 0.876065 -2.920720 1.912460 6.456720 -0.000001 -0.000000 -5.457180 -1.845350 4.841270 12.994200 -0.242716 4.980390 -90.109000 0.300134 -70.039800 5.348090 -0.000007 -0.000001 -67.899400 23.288100 -6.036750 24.328600 0.000019 0.000005 8.574710 15.862600 -28.883000 22.291600 -0.000001 0.000005 10.563500 5.225780 2.061910 12.994500 -0.242716 -4.980390 90.090800 -0.373821 -76.350400 -5.348130 -0.000001 -0.000004 -22.565400 15.186400 -24.792200 -24.328900 0.000322 -0.000009 2.802810 2.372020 -49.799600 -22.291500 -0.000108 -0.000004 -8.020490 5.293400 0.276691 -2.192480 -6.469440 -0.000000 -171.839000 -10.982400 -9.290800 39.081100 -0.000007 -0.000012 -0.104970 0.139416 36.977300 40.985400 -0.000006 -0.000013 0.466216 11.281800 -71.723200 11.754300 -0.000000 0.000003 -0.000005 -0.000066 -16.580100 -2.192510 6.469440 -0.000001 -179.073000 19.823500 171.675000 -39.081100 -0.002282 -0.040193 0.052717 -0.065496 37.042600 -40.985400 0.000008 0.000006 7.583460 5.026530 -71.278600 -11.754300 -0.000006 -0.000006 -0.225044 -0.304356 -18.909200
0.000000 0.000000 0.000000 0.000000 0.000000 -0.000000 -2.985620 90.976900 -1.787200 87.822100 3.228990 4.038740 15.735700 0.000005 -0.000001 76.185900 85.277100 -79.361600 8.984550 -0.406207 -0.000000 1.358020 -2.076920 -6.321660 16.377300 -0.000001 -0.000001 1.391410 -2.504800 1.274580 6.456720 -0.000001 -0.000000 -4.990320 -1.704870 4.096930 12.994200 -0.242716 4.980390 -89.965200 -0.090892 -69.022300 5.348090 -0.000007 -0.000001 -67.494700 23.862600 -3.179160 24.328600 0.000019 0.000005 9.465870 15.964400 -31.224100 22.291600 -0.000001 0.000005 8.340090 5.248610 1.468890 12.994500 -0.242716 -4.980390 90.880100 -3.735890 -76.730700 -5.348130 -0.000001 -0.000004 -13.245300 -2.946070 -26.201300 -24.328900 0.000322 -0.000009 3.182180 2.826670 -48.434200 -22.291500 -0.000108 -0.000004 5.554520 5.406040 -3.040910 -2.192480 -6.469440 -0.000000 -172.630000 -12.031500 -8.446800 39.081100 -0.000007 -0.000012 -0.084788 0.139479 31.295300 40.985400 -0.000006 -0.000013 0.366444 11.833000 -68.881900 11.754300 -0.000000 0.000003 -0.000004 -0.000055 -16.579700 -2.192510 6.469440 -0.000001 -179.170000 21.894300 172.192000 -39.081100 -0.002282 -0.040193 0.039785 -0.058672 31.876700 -40.985400 0.000008 0.000006 7.407060 7.760470 -68.345800 -11.754300 -0.000006 -0.000006 -0.295628 -0.388233 -19.317900
0.000000 0.000000 0.000000 0.000000 0.000000 -0.000000 -2.928200 91.512500 -1.996720 87.936900 3.027580 2.559310 15.735700 0.000005 -0.000001 78.289000 85.856000 -81.520200 8.984550 -0.406207 -0.000000 0.316397 -1.471910 -6.453990 16.377300 -0.000001 -0.000001 1.197630 -2.762020 1.389100 6.456720 -0.000001 -0.000000 -5.514900 -1.677120 2.498970 12.994200 -0.242716 4.980390 -90.096500 0.248185 -68.755400 5.348090 -0.000007 -0.000001 -65.397700 24.735700 -1.394070 24.328600 0.000019 0.000005 10.188100 15.698900 -33.590900 22.291600 -0.000001 0.000005 8.022120 5.262640 1.096260 12.994500 -0.242716 -4.980390 91.782700 -7.699810 -76.922800 -5.348130 -0.000001 -0.000004 -8.527060 -25.653600 -26.339200 -24.328900 0.000322 -0.000009 -2.098080 -2.096730 -45.054600 -22.291500 -0.000108 -0.000004 16.826300 5.532670 -7.834740 -2.192480 -6.469440 -0.000000 -173.099000 -12.977400 -8.601840 39.081100 -0.000007 -0.000012 -0.067182 0.124404 28.370400 40.985400 -0.000006 -0.000013 0.263529 12.361200 -67.248600 11.754300 -0.000000 0.000003 -0.000003 -0.000038 -16.579000 -2.192510 6.469440 -0.000001 -178.809000 22.660900 172.118000 -39.081100 -0.002282 -0.040193 0.033168 -0.054502 28.719800 -40.985400 0.000008 0.000006 7.516990 8.977090 -67.286600 -11.754300 -0.000006 -0.000006 -0.005235 -0.063723 -19.166000
0.000000 0.000000 0.000000 0.000000 0.000000 -0.000000 -2.963600 91.676700 -2.179750 88.198800 3.127560 1.876390 15.735700 0.000005 -0.000001 81.970900 86.018800 -85.203000 8.984550 -0.406207 -0.000000 0.101299 -0.895889 -6.459320 16.377300 -0.000001 -0.000001 0.626293 -3.588310 2.379810 6.456720 -0.000001 -0.000000 -6.323620 -1.405930 -0.093434 12.994200 -0.242716 4.980390 -90.546900 1.395800 -68.602900 5.348090 -0.000007 -0.000001 -62.307600 24.930900 -0.318339 24.328600 0.000019 0.000005 11.229100 16.151000 -35.515400 22.291600 -0.000001 0.000005 8.945920 5.265070 1.030540 12.994500 -0.242716 -4.980390 92.956700 -11.462200 -75.432700 -5.348130 -0.000001 -0.000004 -11.166700 -50.101500 -33.066400 -24.328900 0.000322 -0.000009 -5.599060 -6.072150 -42.818300 -22.291500 -0.000108 -0.000004 23.628000 5.579430 -10.158300 -2.192480 -6.469440 -0.000000 -173.505000 -13.415600 -8.896620 39.081100 -0.000007 -0.000012 -0.062307 0.120775 27.289100 40.985400 -0.000006 -0.000013 0.244971 12.814700 -66.547800 11.754300 -0.000000 0.000003 -0.000003 -0.000043 -16.579200 -2.192510 6.469440 -0.000001 -178.743000 23.313800 172.207000 -39.081100 -0.002282 -0.040193 0.030377 -0.052894 27.101800 -40.985400 0.000008 0.000006 7.866450 9.437210 -67.568900 -11.754300 -0.000006 -0.000006 -0.004817 -0.059684 -19.001400
